<svg width="107" height="91" viewBox="0 0 107 91" fill="none" xmlns="http://www.w3.org/2000/svg">
<rect width="107" height="91" rx="16" fill="#EAE1E1"/>
<path d="M53.5 38C56.2614 38 58.5 35.7614 58.5 33C58.5 30.2386 56.2614 28 53.5 28C50.7386 28 48.5 30.2386 48.5 33C48.5 35.7614 50.7386 38 53.5 38Z" fill="#FD3C4A"/>
<path d="M62.5 24H61.74C61.5536 24.0013 61.3706 23.9505 61.2116 23.8533C61.0526 23.7561 60.9239 23.6164 60.84 23.45L60.5 22.76C60.0844 21.9305 59.4461 21.2331 58.6567 20.7456C57.8673 20.2582 56.9578 20 56.03 20H50.97C50.0422 20 49.1327 20.2582 48.3433 20.7456C47.5539 21.2331 46.9156 21.9305 46.5 22.76L46.16 23.45C46.0761 23.6164 45.9474 23.7561 45.7884 23.8533C45.6294 23.9505 45.4464 24.0013 45.26 24H44.5C43.1739 24 41.9021 24.5268 40.9645 25.4645C40.0268 26.4021 39.5 27.6739 39.5 29V39C39.5 40.3261 40.0268 41.5979 40.9645 42.5355C41.9021 43.4732 43.1739 44 44.5 44H62.5C63.8261 44 65.0979 43.4732 66.0355 42.5355C66.9732 41.5979 67.5 40.3261 67.5 39V29C67.5 27.6739 66.9732 26.4021 66.0355 25.4645C65.0979 24.5268 63.8261 24 62.5 24ZM53.5 40C52.1155 40 50.7622 39.5895 49.611 38.8203C48.4599 38.0511 47.5627 36.9579 47.0328 35.6788C46.503 34.3997 46.3644 32.9922 46.6345 31.6344C46.9046 30.2765 47.5713 29.0292 48.5503 28.0503C49.5292 27.0713 50.7765 26.4046 52.1344 26.1345C53.4922 25.8644 54.8997 26.003 56.1788 26.5328C57.4579 27.0627 58.5511 27.9599 59.3203 29.111C60.0895 30.2622 60.5 31.6155 60.5 33C60.5 34.8565 59.7625 36.637 58.4497 37.9497C57.137 39.2625 55.3565 40 53.5 40ZM62.5 30C62.3022 30 62.1089 29.9414 61.9444 29.8315C61.78 29.7216 61.6518 29.5654 61.5761 29.3827C61.5004 29.2 61.4806 28.9989 61.5192 28.8049C61.5578 28.6109 61.653 28.4327 61.7929 28.2929C61.9327 28.153 62.1109 28.0578 62.3049 28.0192C62.4989 27.9806 62.7 28.0004 62.8827 28.0761C63.0654 28.1518 63.2216 28.28 63.3315 28.4444C63.4414 28.6089 63.5 28.8022 63.5 29C63.5 29.2652 63.3946 29.5196 63.2071 29.7071C63.0196 29.8946 62.7652 30 62.5 30Z" fill="#FD3C4A"/>
<path d="M34.108 63.2898C33.75 60.7045 31.7614 59.2045 29.1818 59.2045C26.142 59.2045 23.8523 61.4205 23.8523 65.1818C23.8523 68.9375 26.1136 71.1591 29.1818 71.1591C31.9489 71.1591 33.7841 69.3693 34.108 67.1477L31.983 67.1364C31.7159 68.5 30.6023 69.267 29.2102 69.267C27.3239 69.267 25.9716 67.8523 25.9716 65.1818C25.9716 62.5568 27.3125 61.0966 29.2159 61.0966C30.6307 61.0966 31.7386 61.8977 31.983 63.2898H34.108ZM38.4588 71.1761C39.8281 71.1761 40.6463 70.5341 41.0213 69.8011H41.0895V71H43.0668V65.1591C43.0668 62.8523 41.1861 62.1591 39.5213 62.1591C37.6861 62.1591 36.277 62.9773 35.8224 64.5682L37.7429 64.8409C37.9474 64.2443 38.527 63.733 39.5327 63.733C40.4872 63.733 41.0099 64.2216 41.0099 65.0795V65.1136C41.0099 65.7045 40.3906 65.733 38.8509 65.8977C37.1577 66.0795 35.5384 66.5852 35.5384 68.5511C35.5384 70.267 36.794 71.1761 38.4588 71.1761ZM38.9929 69.6648C38.1349 69.6648 37.5213 69.2727 37.5213 68.517C37.5213 67.7273 38.2088 67.3977 39.1293 67.267C39.669 67.1932 40.7486 67.0568 41.0156 66.8409V67.8693C41.0156 68.8409 40.2315 69.6648 38.9929 69.6648ZM45.1349 71H47.1918V65.6932C47.1918 64.6193 47.9077 63.892 48.794 63.892C49.6634 63.892 50.2599 64.4773 50.2599 65.375V71H52.277V65.5568C52.277 64.5739 52.8622 63.892 53.8565 63.892C54.6861 63.892 55.3452 64.3807 55.3452 65.4602V71H57.4077V65.142C57.4077 63.1932 56.2827 62.1591 54.6804 62.1591C53.4134 62.1591 52.4474 62.7841 52.0611 63.7557H51.9702C51.6349 62.767 50.7884 62.1591 49.6122 62.1591C48.4418 62.1591 47.5668 62.7614 47.2031 63.7557H47.1009V62.2727H45.1349V71ZM63.358 71.1705C65.392 71.1705 66.7898 70.1761 67.1534 68.6591L65.233 68.4432C64.9545 69.1818 64.2727 69.5682 63.3864 69.5682C62.0568 69.5682 61.1761 68.6932 61.1591 67.1989H67.2386V66.5682C67.2386 63.5057 65.3977 62.1591 63.25 62.1591C60.75 62.1591 59.1193 63.9943 59.1193 66.6875C59.1193 69.4261 60.7273 71.1705 63.358 71.1705ZM61.1648 65.8125C61.2273 64.6989 62.0511 63.7614 63.2784 63.7614C64.4602 63.7614 65.2557 64.625 65.267 65.8125H61.1648ZM68.9787 71H71.0355V65.8693C71.0355 64.7614 71.8707 63.9773 73.0014 63.9773C73.348 63.9773 73.7798 64.0398 73.956 64.0966V62.2045C73.7685 62.1705 73.4446 62.1477 73.2173 62.1477C72.2173 62.1477 71.3821 62.7159 71.0639 63.7273H70.973V62.2727H68.9787V71ZM77.6619 71.1761C79.0312 71.1761 79.8494 70.5341 80.2244 69.8011H80.2926V71H82.2699V65.1591C82.2699 62.8523 80.3892 62.1591 78.7244 62.1591C76.8892 62.1591 75.4801 62.9773 75.0256 64.5682L76.946 64.8409C77.1506 64.2443 77.7301 63.733 78.7358 63.733C79.6903 63.733 80.2131 64.2216 80.2131 65.0795V65.1136C80.2131 65.7045 79.5938 65.733 78.054 65.8977C76.3608 66.0795 74.7415 66.5852 74.7415 68.5511C74.7415 70.267 75.9972 71.1761 77.6619 71.1761ZM78.196 69.6648C77.3381 69.6648 76.7244 69.2727 76.7244 68.517C76.7244 67.7273 77.4119 67.3977 78.3324 67.267C78.8722 67.1932 79.9517 67.0568 80.2188 66.8409V67.8693C80.2188 68.8409 79.4347 69.6648 78.196 69.6648Z" fill="#FD3C4A"/>
</svg>
