<svg width="112" height="91" viewBox="0 0 112 91" fill="none" xmlns="http://www.w3.org/2000/svg">
<rect width="112" height="91" rx="16" fill="#D8DFF1"/>
<path d="M68 28V41C68 42.3261 67.4732 43.5979 66.5355 44.5355C65.5979 45.4732 64.3261 46 63 46H49C47.6739 46 46.4021 45.4732 45.4645 44.5355C44.5268 43.5979 44 42.3261 44 41V23C44 21.6739 44.5268 20.4021 45.4645 19.4645C46.4021 18.5268 47.6739 18 49 18H58V25C58 25.7956 58.3161 26.5587 58.8787 27.1213C59.4413 27.6839 60.2044 28 61 28H68Z" fill="#0077FF"/>
<path d="M67.91 26H61C60.7348 26 60.4804 25.8946 60.2929 25.7071C60.1054 25.5196 60 25.2652 60 25V18.09C61.1834 18.2917 62.2742 18.8581 63.12 19.71L66.29 22.88C67.1403 23.727 67.7064 24.8172 67.91 26Z" fill="#0077FF"/>
<path d="M21.0909 71C24.6364 71 26.7386 68.8068 26.7386 65.1705C26.7386 61.5455 24.6364 59.3636 21.1705 59.3636H17.1477V71H21.0909ZM19.2557 69.1761V61.1875H21.0511C23.4148 61.1875 24.6477 62.5057 24.6477 65.1705C24.6477 67.8466 23.4148 69.1761 20.9886 69.1761H19.2557ZM32.4574 71.1705C35.0142 71.1705 36.6392 69.3693 36.6392 66.6705C36.6392 63.9659 35.0142 62.1591 32.4574 62.1591C29.9006 62.1591 28.2756 63.9659 28.2756 66.6705C28.2756 69.3693 29.9006 71.1705 32.4574 71.1705ZM32.4688 69.5227C31.054 69.5227 30.3608 68.2614 30.3608 66.6648C30.3608 65.0682 31.054 63.7898 32.4688 63.7898C33.8608 63.7898 34.554 65.0682 34.554 66.6648C34.554 68.2614 33.8608 69.5227 32.4688 69.5227ZM42.1918 71.1705C44.3849 71.1705 45.7827 69.8693 45.9304 68.017H43.9645C43.7884 68.9545 43.1122 69.4943 42.2088 69.4943C40.9247 69.4943 40.0952 68.4205 40.0952 66.6364C40.0952 64.875 40.9418 63.8182 42.2088 63.8182C43.1974 63.8182 43.8054 64.4545 43.9645 65.2955H45.9304C45.7884 63.4034 44.3111 62.1591 42.1804 62.1591C39.6236 62.1591 38.0099 64.0057 38.0099 66.6705C38.0099 69.3125 39.5838 71.1705 42.1918 71.1705ZM53.1818 67.3295C53.1818 68.6591 52.233 69.3182 51.3239 69.3182C50.3352 69.3182 49.6761 68.6193 49.6761 67.5114V62.2727H47.6193V67.8295C47.6193 69.9261 48.8125 71.1136 50.5284 71.1136C51.8352 71.1136 52.7557 70.4261 53.1534 69.4489H53.2443V71H55.2386V62.2727H53.1818V67.3295ZM57.3537 71H59.4105V65.6932C59.4105 64.6193 60.1264 63.892 61.0128 63.892C61.8821 63.892 62.4787 64.4773 62.4787 65.375V71H64.4957V65.5568C64.4957 64.5739 65.081 63.892 66.0753 63.892C66.9048 63.892 67.5639 64.3807 67.5639 65.4602V71H69.6264V65.142C69.6264 63.1932 68.5014 62.1591 66.8991 62.1591C65.6321 62.1591 64.6662 62.7841 64.2798 63.7557H64.1889C63.8537 62.767 63.0071 62.1591 61.831 62.1591C60.6605 62.1591 59.7855 62.7614 59.4219 63.7557H59.3196V62.2727H57.3537V71ZM75.5767 71.1705C77.6108 71.1705 79.0085 70.1761 79.3722 68.6591L77.4517 68.4432C77.1733 69.1818 76.4915 69.5682 75.6051 69.5682C74.2756 69.5682 73.3949 68.6932 73.3778 67.1989H79.4574V66.5682C79.4574 63.5057 77.6165 62.1591 75.4688 62.1591C72.9688 62.1591 71.3381 63.9943 71.3381 66.6875C71.3381 69.4261 72.946 71.1705 75.5767 71.1705ZM73.3835 65.8125C73.446 64.6989 74.2699 63.7614 75.4972 63.7614C76.679 63.7614 77.4744 64.625 77.4858 65.8125H73.3835ZM83.2543 65.8864C83.2543 64.625 84.0156 63.8977 85.1009 63.8977C86.1634 63.8977 86.7997 64.5966 86.7997 65.7614V71H88.8565V65.4432C88.8622 63.3523 87.669 62.1591 85.8679 62.1591C84.5611 62.1591 83.6634 62.7841 83.2656 63.7557H83.1634V62.2727H81.1974V71H83.2543V65.8864ZM95.3054 62.2727H93.5838V60.1818H91.527V62.2727H90.2884V63.8636H91.527V68.7159C91.5156 70.358 92.7088 71.1648 94.2543 71.1193C94.8395 71.1023 95.2429 70.9886 95.4645 70.9148L95.1179 69.3068C95.0043 69.3352 94.7713 69.3864 94.5156 69.3864C93.9986 69.3864 93.5838 69.2045 93.5838 68.375V63.8636H95.3054V62.2727Z" fill="#0077FF"/>
</svg>
