<svg width="107" height="91" viewBox="0 0 107 91" fill="none" xmlns="http://www.w3.org/2000/svg">
<rect width="107" height="91" rx="16" fill="#EAE1E1"/>
<path d="M60.5 32.28C59.9375 31.7182 59.175 31.4026 58.38 31.4026C57.585 31.4026 56.8225 31.7182 56.26 32.28L44.5 44C46.19 44 51.28 44 62.5 44C63.5072 43.997 64.49 43.6899 65.3198 43.1189C66.1495 42.548 66.7874 41.7397 67.15 40.8C67.15 40.68 67.24 40.55 67.28 40.42L67.4 40C67.4338 39.8383 67.4572 39.6747 67.47 39.51C67.4753 39.4668 67.4753 39.4232 67.47 39.38C67.4747 39.3637 67.4747 39.3463 67.47 39.33L60.5 32.28Z" fill="#FD3C4A"/>
<path d="M67.5 24.52C67.3803 23.2788 66.8011 22.1271 65.8761 21.2909C64.9511 20.4546 63.747 19.9942 62.5 20H44.5C43.253 19.9942 42.0489 20.4546 41.1239 21.2909C40.1989 22.1271 39.6197 23.2788 39.5 24.52C39.4878 24.6798 39.4878 24.8402 39.5 25V39C39.49 39.1698 39.49 39.3401 39.5 39.51C39.5237 39.6817 39.5571 39.852 39.6 40.02C39.9574 41.106 40.5754 42.088 41.4 42.88C41.6616 43.0921 41.9468 43.2733 42.25 43.42L54.82 30.86C55.2845 30.3944 55.8362 30.0249 56.4437 29.7729C57.0511 29.5208 57.7023 29.3911 58.36 29.3911C59.0177 29.3911 59.6689 29.5208 60.2763 29.7729C60.8838 30.0249 61.4355 30.3944 61.9 30.86L67.5 36.46V25C67.5122 24.8402 67.5122 24.6798 67.5 24.52ZM45.5 28C45.1044 28 44.7178 27.8827 44.3889 27.6629C44.06 27.4432 43.8036 27.1308 43.6522 26.7654C43.5009 26.3999 43.4613 25.9978 43.5384 25.6098C43.6156 25.2218 43.8061 24.8655 44.0858 24.5858C44.3655 24.3061 44.7219 24.1156 45.1098 24.0384C45.4978 23.9613 45.8999 24.0009 46.2654 24.1522C46.6308 24.3036 46.9432 24.56 47.1629 24.8889C47.3827 25.2178 47.5 25.6044 47.5 26C47.5 26.5304 47.2893 27.0391 46.9142 27.4142C46.5391 27.7893 46.0304 28 45.5 28Z" fill="#FD3C4A"/>
<path d="M32.7557 59.3636V71H30.6477V59.3636H32.7557ZM34.9474 71V62.2727H36.9134V63.7557H37.0156C37.1974 63.2557 37.4986 62.8655 37.919 62.5852C38.3395 62.3011 38.8414 62.1591 39.4247 62.1591C40.0156 62.1591 40.5137 62.303 40.919 62.5909C41.3281 62.875 41.616 63.2633 41.7827 63.7557H41.8736C42.0668 63.2708 42.3925 62.8845 42.8509 62.5966C43.313 62.3049 43.8603 62.1591 44.4929 62.1591C45.2959 62.1591 45.9512 62.4129 46.4588 62.9205C46.9664 63.428 47.2202 64.1686 47.2202 65.142V71H45.1577V65.4602C45.1577 64.9186 45.0137 64.5227 44.7259 64.2727C44.438 64.0189 44.0857 63.892 43.669 63.892C43.1728 63.892 42.7846 64.0473 42.5043 64.358C42.2277 64.6648 42.0895 65.0644 42.0895 65.5568V71H40.0724V65.375C40.0724 64.9242 39.9361 64.5644 39.6634 64.2955C39.3944 64.0265 39.0421 63.892 38.6065 63.892C38.3111 63.892 38.0421 63.9678 37.7997 64.1193C37.5573 64.267 37.3641 64.4773 37.2202 64.75C37.0762 65.0189 37.0043 65.3333 37.0043 65.6932V71H34.9474ZM51.8182 71.1761C51.2652 71.1761 50.767 71.0777 50.3239 70.8807C49.8845 70.6799 49.536 70.3845 49.2784 69.9943C49.0246 69.6042 48.8977 69.1231 48.8977 68.5511C48.8977 68.0587 48.9886 67.6515 49.1705 67.3295C49.3523 67.0076 49.6004 66.75 49.9148 66.5568C50.2292 66.3636 50.5833 66.2178 50.9773 66.1193C51.375 66.017 51.786 65.9432 52.2102 65.8977C52.7216 65.8447 53.1364 65.7973 53.4545 65.7557C53.7727 65.7102 54.0038 65.642 54.1477 65.5511C54.2955 65.4564 54.3693 65.3106 54.3693 65.1136V65.0795C54.3693 64.6515 54.2424 64.3201 53.9886 64.0852C53.7348 63.8504 53.3693 63.733 52.892 63.733C52.3883 63.733 51.9886 63.8428 51.6932 64.0625C51.4015 64.2822 51.2045 64.5417 51.1023 64.8409L49.1818 64.5682C49.3333 64.0379 49.5833 63.5947 49.9318 63.2386C50.2803 62.8788 50.7064 62.6098 51.2102 62.4318C51.714 62.25 52.2708 62.1591 52.8807 62.1591C53.3011 62.1591 53.7197 62.2083 54.1364 62.3068C54.553 62.4053 54.9337 62.5682 55.2784 62.7955C55.6231 63.0189 55.8996 63.3239 56.108 63.7102C56.3201 64.0966 56.4261 64.5795 56.4261 65.1591V71H54.4489V69.8011H54.3807C54.2557 70.0436 54.0795 70.2708 53.8523 70.483C53.6288 70.6913 53.3466 70.8598 53.0057 70.9886C52.6686 71.1136 52.2727 71.1761 51.8182 71.1761ZM52.3523 69.6648C52.7652 69.6648 53.1231 69.5833 53.4261 69.4205C53.7292 69.2538 53.9621 69.0341 54.125 68.7614C54.2917 68.4886 54.375 68.1913 54.375 67.8693V66.8409C54.3106 66.8939 54.2008 66.9432 54.0455 66.9886C53.8939 67.0341 53.7235 67.0739 53.5341 67.108C53.3447 67.142 53.1572 67.1723 52.9716 67.1989C52.786 67.2254 52.625 67.2481 52.4886 67.267C52.1818 67.3087 51.9072 67.3769 51.6648 67.4716C51.4223 67.5663 51.2311 67.6989 51.0909 67.8693C50.9508 68.036 50.8807 68.2519 50.8807 68.517C50.8807 68.8958 51.0189 69.1818 51.2955 69.375C51.572 69.5682 51.9242 69.6648 52.3523 69.6648ZM62.2898 74.4545C61.5511 74.4545 60.9167 74.3542 60.3864 74.1534C59.8561 73.9564 59.4299 73.6913 59.108 73.358C58.786 73.0246 58.5625 72.6553 58.4375 72.25L60.2898 71.8011C60.3731 71.9716 60.4943 72.1402 60.6534 72.3068C60.8125 72.4773 61.0265 72.6174 61.2955 72.7273C61.5682 72.8409 61.911 72.8977 62.3239 72.8977C62.9072 72.8977 63.3902 72.7557 63.7727 72.4716C64.1553 72.1913 64.3466 71.7292 64.3466 71.0852V69.4318H64.2443C64.1383 69.6439 63.983 69.8617 63.7784 70.0852C63.5777 70.3087 63.3106 70.4962 62.9773 70.6477C62.6477 70.7992 62.233 70.875 61.733 70.875C61.0625 70.875 60.4545 70.7178 59.9091 70.4034C59.3674 70.0852 58.9356 69.6117 58.6136 68.983C58.2955 68.3504 58.1364 67.5587 58.1364 66.608C58.1364 65.6496 58.2955 64.8409 58.6136 64.1818C58.9356 63.5189 59.3693 63.017 59.9148 62.6761C60.4602 62.3314 61.0682 62.1591 61.7386 62.1591C62.25 62.1591 62.6705 62.2462 63 62.4205C63.3333 62.5909 63.5985 62.7973 63.7955 63.0398C63.9924 63.2784 64.142 63.5038 64.2443 63.7159H64.358V62.2727H66.3864V71.142C66.3864 71.8883 66.2083 72.5057 65.8523 72.9943C65.4962 73.483 65.0095 73.8485 64.392 74.0909C63.7746 74.3333 63.0739 74.4545 62.2898 74.4545ZM62.3068 69.2614C62.7424 69.2614 63.1136 69.1553 63.4205 68.9432C63.7273 68.7311 63.9602 68.4261 64.1193 68.0284C64.2784 67.6307 64.358 67.1534 64.358 66.5966C64.358 66.0473 64.2784 65.5663 64.1193 65.1534C63.964 64.7405 63.733 64.4205 63.4261 64.1932C63.1231 63.9621 62.75 63.8466 62.3068 63.8466C61.8485 63.8466 61.4659 63.9659 61.1591 64.2045C60.8523 64.4432 60.6212 64.7708 60.4659 65.1875C60.3106 65.6004 60.233 66.0701 60.233 66.5966C60.233 67.1307 60.3106 67.5985 60.4659 68C60.625 68.3977 60.858 68.7083 61.1648 68.9318C61.4754 69.1515 61.8561 69.2614 62.3068 69.2614ZM72.358 71.1705C71.483 71.1705 70.7273 70.9886 70.0909 70.625C69.4583 70.2576 68.9716 69.7386 68.6307 69.0682C68.2898 68.3939 68.1193 67.6004 68.1193 66.6875C68.1193 65.7898 68.2898 65.0019 68.6307 64.3239C68.9754 63.642 69.4564 63.1117 70.0739 62.733C70.6913 62.3504 71.4167 62.1591 72.25 62.1591C72.7879 62.1591 73.2955 62.2462 73.7727 62.4205C74.2538 62.5909 74.678 62.8561 75.0455 63.2159C75.4167 63.5758 75.7083 64.0341 75.9205 64.5909C76.1326 65.1439 76.2386 65.803 76.2386 66.5682V67.1989H69.0852V65.8125H74.267C74.2633 65.4186 74.178 65.0682 74.0114 64.7614C73.8447 64.4508 73.6117 64.2064 73.3125 64.0284C73.017 63.8504 72.6723 63.7614 72.2784 63.7614C71.858 63.7614 71.4886 63.8636 71.1705 64.0682C70.8523 64.2689 70.6042 64.5341 70.4261 64.8636C70.2519 65.1894 70.1629 65.5473 70.1591 65.9375V67.1477C70.1591 67.6553 70.2519 68.0909 70.4375 68.4545C70.6231 68.8144 70.8826 69.0909 71.2159 69.2841C71.5492 69.4735 71.9394 69.5682 72.3864 69.5682C72.6856 69.5682 72.9564 69.5265 73.1989 69.4432C73.4413 69.3561 73.6515 69.2292 73.8295 69.0625C74.0076 68.8958 74.142 68.6894 74.233 68.4432L76.1534 68.6591C76.0322 69.1667 75.8011 69.6098 75.4602 69.9886C75.1231 70.3636 74.6913 70.6553 74.1648 70.8636C73.6383 71.0682 73.036 71.1705 72.358 71.1705Z" fill="#FD3C4A"/>
</svg>
